<svg xmlns="http://www.w3.org/2000/svg" viewBox="0 0 524.05 110.79"><defs><style>.cls-1,.cls-2{fill:#fff;}.cls-2{stroke:#fff;stroke-miterlimit:10;stroke-width:5px;}</style></defs><g id="Layer_2" data-name="Layer 2"><g id="Layer_1-2" data-name="Layer 1"><path class="cls-1" d="M83.2,75.11q1.1,3.3,9,3.3V84.8H51.92V78.41h9.69c2.13,0,3.2-.69,3.2-2.09a4.31,4.31,0,0,0-.33-1.21L60.07,63.22H26.26l-4.07,11A4.06,4.06,0,0,0,22,75.55q0,2.86,4.84,2.86h6.83V84.8H3.58V78.3a22,22,0,0,0,6.82-.77,4.08,4.08,0,0,0,2.76-2.31L40.69,3h16Zm-54.07-20H57.32l-14-38.77Z"/><path class="cls-1" d="M174.39,35a41.27,41.27,0,0,0-7.93,1.38,20.31,20.31,0,0,0-6.61,3.14l-11.78,8.59,19.6,26.65a8.26,8.26,0,0,0,3.41,2.81,14.44,14.44,0,0,0,5.73.93V84.8H141.46V78.52h6.61c1.83,0,2.75-.58,2.75-1.76a3.71,3.71,0,0,0-.88-2L136.28,56.17l-11.12,7.71v9.69q0,5,9.36,5V84.8H100.6V78.52q9.47,0,9.47-5V11.23q0-5-9.47-4.95V0h24.56l-.06,56.61,23.41-16.85a3,3,0,0,0,1.43-2.54,2.12,2.12,0,0,0-.66-1.54,3,3,0,0,0-2.2-.66h-5.29V28.74h32.6Z"/><path class="cls-1" d="M195.86,56q.22,11.34,4.19,17.45t12,6.11a20.27,20.27,0,0,0,11.13-3.08c3.23-2.05,5.46-5.4,6.71-10l6.83,1.32a30.65,30.65,0,0,1-2.92,7,22.42,22.42,0,0,1-5,6.06,24.07,24.07,0,0,1-7.43,4.24,29.67,29.67,0,0,1-10.19,1.59,44.64,44.64,0,0,1-11.12-1.38,24.9,24.9,0,0,1-9.64-4.79,24.36,24.36,0,0,1-6.83-9.22Q181,65.49,181,56.66a35.59,35.59,0,0,1,2-12.3,25.92,25.92,0,0,1,15.31-15.72,34.33,34.33,0,0,1,12.72-2.21q27.75,0,27.75,29.52Zm29.3-5.73a25.49,25.49,0,0,0-.88-6.81,16.8,16.8,0,0,0-2.65-5.55,12.92,12.92,0,0,0-4.35-3.77,12.53,12.53,0,0,0-6-1.38,14,14,0,0,0-10.13,4.1q-4.18,4.09-5.07,13.41Z"/><path class="cls-1" d="M279.56,93.83q0,8.6-5.08,12.78T260,110.79q-9.39,0-14.47-3.36t-5.08-10a9.67,9.67,0,0,1,.45-2.81A7.19,7.19,0,0,1,242.34,92a8,8,0,0,1,2.48-1.92,7.59,7.59,0,0,1,3.57-.77q3.86,0,5.68,1.92a6.31,6.31,0,0,1,1.81,4.46,5.77,5.77,0,0,1-1.76,4.41,7.87,7.87,0,0,1-4.62,2,7.4,7.4,0,0,0,3,2.23,13.93,13.93,0,0,0,5.13.75c2.34,0,4.05-.67,5.12-2a8,8,0,0,0,1.59-5.17V40.08q0-5.05-10.79-5.06V28.74h25.88Zm1.32-83.59a8.93,8.93,0,0,1-.77,3.69,10.66,10.66,0,0,1-2,3,8.89,8.89,0,0,1-3,2,9.52,9.52,0,0,1-10.3-2,9.14,9.14,0,0,1-2.75-6.72,9,9,0,0,1,2.75-6.61,9.45,9.45,0,0,1,13.28,0A8.87,8.87,0,0,1,280.88,10.24Z"/><path class="cls-1" d="M354.12,56.55q0,14.4-7.93,22.26t-23,7.86a46.11,46.11,0,0,1-11.34-1.37A22.68,22.68,0,0,1,296,71.67a34.64,34.64,0,0,1-2.42-13.8q0-15.06,7.6-23.14t23.23-8.08a43.58,43.58,0,0,1,11.51,1.49,22.91,22.91,0,0,1,15.86,14.12A37.5,37.5,0,0,1,354.12,56.55ZM324.33,33.81q-8.24,0-12,5.34t-3.73,15.36a63.47,63.47,0,0,0,1,12.34,21,21,0,0,0,2.91,7.65,10.3,10.3,0,0,0,4.61,3.91,16.14,16.14,0,0,0,6.2,1.1q8.67,0,12.18-5.83T339,57.16a52.63,52.63,0,0,0-1-11.46,19,19,0,0,0-3-7.15,10.61,10.61,0,0,0-4.66-3.69A16.36,16.36,0,0,0,324.33,33.81Z"/><path class="cls-1" d="M386.83,73.57q0,5,9.58,5V84.8H362.27V78.52q9.47,0,9.47-5V11.23q0-5-9.47-4.95V0h24.56Z"/><path class="cls-1" d="M429.45,73.57q-.22,5,9.58,5V84.8H404.89V78.52q9.47,0,9.47-5V40.09q0-5.07-9.47-5.07V28.74h24.56Zm1.32-63.33a9.32,9.32,0,0,1-2.7,6.67,8.87,8.87,0,0,1-6.66,2.8,8.78,8.78,0,0,1-3.69-.77,9.68,9.68,0,0,1-5-5,8.78,8.78,0,0,1-.77-3.69,8.87,8.87,0,0,1,2.8-6.66,9.32,9.32,0,0,1,6.67-2.7A9,9,0,0,1,428,3.63,9,9,0,0,1,430.77,10.24Z"/><path class="cls-1" d="M514.36,73.57q0,5,9.69,5V84.8H491.89V78.52q7.38,0,7.38-5V49.12q0-6.94-2.2-9.91a7,7,0,0,0-5.95-3,15.49,15.49,0,0,0-5.67,1.1,21.35,21.35,0,0,0-5.34,3.09,27,27,0,0,0-8,10.46V73.57q0,5,7.38,5V84.8H447.51V78.52q9.47,0,9.47-5V40q0-5-9.47-5V28.74h24.56l0,11.24a33.61,33.61,0,0,1,10.48-8.87,29.21,29.21,0,0,1,14.34-3.47q8.28,0,12.86,3.86t4.58,12.55Z"/><line class="cls-2" x1="227.5" y1="103.02" y2="103.02"/><line class="cls-2" x1="523" y1="103.02" x2="291" y2="103.02"/></g></g></svg>