<svg id="Layer_2" data-name="Layer 2" xmlns="http://www.w3.org/2000/svg" viewBox="0 0 256 250"><defs><style>.cls-1{fill:#654a4e;}.cls-2{fill:#fff;}</style></defs><path class="cls-1" d="M235.29,0H19.87A18.45,18.45,0,0,0,1.21,18.22V234.55a18.46,18.46,0,0,0,18.66,18.24H235.29A18.5,18.5,0,0,0,254,234.55V18.22A18.49,18.49,0,0,0,235.29,0"/><path class="cls-2" d="M58.44,34.8A21.74,21.74,0,1,1,36.7,56.53,21.74,21.74,0,0,1,58.44,34.8Zm-18.75,60H77.18V215.41H39.69Z"/><path class="cls-2" d="M99.7,94.77h36v16.48h.49c5-9.48,17.24-19.48,35.48-19.48,38,0,45,25,45,57.47v66.17H179.15V156.74c0-14-.26-32-19.49-32-19.51,0-22.5,15.24-22.5,31v59.68H99.7V94.77"/></svg>