<svg id="Layer_1" data-name="Layer 1" xmlns="http://www.w3.org/2000/svg" viewBox="0 0 104 127"><defs><style>.cls-1{fill:#654a4e;}</style></defs><path class="cls-1" d="M69.85,73.05,26.42,62.52l2.11-8.69L72,64.36l-2.1,8.69"/><path class="cls-1" d="M72.76,62.66,33,42.33l4.06-8L76.82,54.7l-4.06,8"/><path class="cls-1" d="M78.89,51.9,45.23,22.5l5.88-6.73,33.65,29.4L78.89,51.9"/><path class="cls-1" d="M88.14,42.44l-25.09-37,7.39-5,25.1,37-7.4,5"/><path class="cls-1" d="M69.15,83.91,24.53,81.48,25,72.55,69.64,75l-.49,8.92"/><path class="cls-1" d="M78.4,104.93v-37h8.93v46H6.57v-46h8.94v37.06H78.4"/><path class="cls-1" d="M24.41,87.1h45V96h-45Z"/></svg>